<svg width="21" height="20" viewBox="0 0 21 20" fill="none" xmlns="http://www.w3.org/2000/svg">
<path d="M20.7278 9.81989L11.2789 0.301265C10.881 -0.100422 10.1167 -0.100422 9.71875 0.301265L0.269803 9.81989C0.133797 9.95658 0.0445239 10.1261 0.012838 10.308C-0.0188479 10.4898 0.00841875 10.6761 0.0913227 10.8441C0.259304 11.1877 0.635162 11.4086 1.04987 11.4086H3.14963V18.0716C3.14963 18.324 3.26024 18.5662 3.45713 18.7447C3.65403 18.9232 3.92107 19.0235 4.19951 19.0235H7.34916C7.62761 19.0235 7.89465 18.9232 8.09154 18.7447C8.28843 18.5662 8.39904 18.324 8.39904 18.0716V14.2641H12.5986V18.0716C12.5986 18.324 12.7092 18.5662 12.9061 18.7447C13.103 18.9232 13.37 19.0235 13.6485 19.0235H16.7981C17.0766 19.0235 17.3436 18.9232 17.5405 18.7447C17.7374 18.5662 17.848 18.324 17.848 18.0716V11.4086H19.9478C20.1511 11.4093 20.3503 11.3565 20.521 11.2564C20.6918 11.1563 20.8267 11.0134 20.9094 10.8449C20.9921 10.6765 21.019 10.4899 20.9867 10.3079C20.9545 10.1259 20.8645 9.95635 20.7278 9.81989Z" fill="white"/>
</svg>
