<svg width="20" height="20" viewBox="0 0 20 20" fill="none" xmlns="http://www.w3.org/2000/svg">
<path d="M16.6673 9.99935C16.6673 9.08018 15.9198 8.33268 15.0007 8.33268H14.1673V5.83268C14.1673 3.53518 12.2982 1.66602 10.0007 1.66602C7.70315 1.66602 5.83398 3.53518 5.83398 5.83268V8.33268H5.00065C4.08148 8.33268 3.33398 9.08018 3.33398 9.99935V16.666C3.33398 17.5852 4.08148 18.3327 5.00065 18.3327H15.0007C15.9198 18.3327 16.6673 17.5852 16.6673 16.666V9.99935ZM7.50065 5.83268C7.50065 4.45435 8.62232 3.33268 10.0007 3.33268C11.379 3.33268 12.5007 4.45435 12.5007 5.83268V8.33268H7.50065V5.83268Z" fill="#544A0C"/>
</svg>
