<svg width="12" height="12" viewBox="0 0 12 12" fill="none" xmlns="http://www.w3.org/2000/svg">
<path d="M5.39922 6.00195C6.06196 6.00195 6.59922 5.33038 6.59922 4.50195C6.59922 3.67353 6.06196 3.00195 5.39922 3.00195C4.73648 3.00195 4.19922 3.67353 4.19922 4.50195C4.19922 5.33038 4.73648 6.00195 5.39922 6.00195Z" stroke="#D0D0D0" stroke-width="2" stroke-linecap="round" stroke-linejoin="round"/>
<path d="M5.39883 1.20117C4.44405 1.20117 3.52837 1.55517 2.85324 2.18529C2.17811 2.81542 1.79883 3.67004 1.79883 4.56117C1.79883 5.35581 1.97973 5.87577 2.47383 6.45117L5.39883 9.60117L8.32383 6.45117C8.81793 5.87577 8.99883 5.35581 8.99883 4.56117C8.99883 3.67004 8.61954 2.81542 7.94441 2.18529C7.26928 1.55517 6.35361 1.20117 5.39883 1.20117V1.20117Z" stroke="#D0D0D0" stroke-width="2" stroke-linecap="round" stroke-linejoin="round"/>
</svg>
