<svg width="99" height="99" viewBox="0 0 99 99" fill="none" xmlns="http://www.w3.org/2000/svg">
<path fill-rule="evenodd" clip-rule="evenodd" d="M49.1667 93.4167C73.605 93.4167 93.4167 73.605 93.4167 49.1667C93.4167 24.7284 73.605 4.91667 49.1667 4.91667C24.7284 4.91667 4.91667 24.7284 4.91667 49.1667C4.91667 73.605 24.7284 93.4167 49.1667 93.4167ZM49.1667 98.3333C76.3214 98.3333 98.3333 76.3214 98.3333 49.1667C98.3333 22.0119 76.3214 0 49.1667 0C22.0119 0 0 22.0119 0 49.1667C0 76.3214 22.0119 98.3333 49.1667 98.3333Z" fill="#EBB478"/>
<path d="M19.668 77.7578C19.668 75.2184 21.5658 73.0722 24.093 72.792C43.059 70.6926 55.363 70.8819 74.2872 72.8387C75.2322 72.9379 76.1279 73.3102 76.8648 73.9101C77.6017 74.51 78.148 75.3115 78.4368 76.2167C78.7257 77.122 78.7447 78.0917 78.4915 79.0076C78.2383 79.9234 77.7239 80.7457 77.0111 81.374C54.6771 100.842 41.9134 100.574 21.2413 81.3937C20.2334 80.4595 19.668 79.132 19.668 77.7603V77.7578Z" fill="#EBB478"/>
<path fill-rule="evenodd" clip-rule="evenodd" d="M74.0314 75.2809C55.2571 73.3388 43.1302 73.1569 24.3583 75.2342C23.7404 75.3062 23.1708 75.6036 22.7585 76.0694C22.3461 76.5353 22.1201 77.1368 22.1237 77.7589C22.1237 78.462 22.4163 79.1282 22.9104 79.5904C33.1567 89.0943 40.9201 93.389 48.509 93.416C56.1249 93.4431 64.3062 89.1828 75.3933 79.5215C75.7456 79.208 75.9991 78.7989 76.1232 78.344C76.2473 77.8891 76.2366 77.4079 76.0923 76.959C75.948 76.5101 75.6765 76.1127 75.3106 75.8153C74.9447 75.5178 74.5003 75.333 74.0314 75.2834V75.2809ZM23.82 70.347C42.9851 68.2255 55.4685 68.4172 74.5403 70.3913C75.9619 70.5397 77.3095 71.0993 78.418 72.0018C79.5264 72.9043 80.3477 74.1103 80.7813 75.4724C81.2149 76.8344 81.2419 78.2933 80.8591 79.6705C80.4763 81.0476 79.7003 82.2833 78.626 83.2262C67.3792 93.0301 58.0129 98.3696 48.4943 98.3327C38.9485 98.2983 29.9953 92.8678 19.5695 83.1943C18.823 82.499 18.228 81.6572 17.8215 80.7216C17.415 79.786 17.2058 78.7766 17.207 77.7564C17.2035 75.9236 17.8762 74.1538 19.0964 72.7862C20.3167 71.4185 21.9986 70.5492 23.82 70.3446V70.347Z" fill="#EBB478"/>
<path d="M68.8333 39.3327C68.8333 44.5486 66.7613 49.5509 63.0731 53.2391C59.3849 56.9273 54.3826 58.9993 49.1667 58.9993C43.9507 58.9993 38.9484 56.9273 35.2602 53.2391C31.572 49.5509 29.5 44.5486 29.5 39.3327C29.5 34.1168 31.572 29.1145 35.2602 25.4262C38.9484 21.738 43.9507 19.666 49.1667 19.666C54.3826 19.666 59.3849 21.738 63.0731 25.4262C66.7613 29.1145 68.8333 34.1168 68.8333 39.3327Z" fill="#EBB478"/>
<path fill-rule="evenodd" clip-rule="evenodd" d="M49.1667 54.0827C53.0786 54.0827 56.8303 52.5287 59.5965 49.7625C62.3627 46.9963 63.9167 43.2446 63.9167 39.3327C63.9167 35.4207 62.3627 31.669 59.5965 28.9029C56.8303 26.1367 53.0786 24.5827 49.1667 24.5827C45.2547 24.5827 41.503 26.1367 38.7368 28.9029C35.9707 31.669 34.4167 35.4207 34.4167 39.3327C34.4167 43.2446 35.9707 46.9963 38.7368 49.7625C41.503 52.5287 45.2547 54.0827 49.1667 54.0827ZM49.1667 58.9993C54.3826 58.9993 59.3849 56.9273 63.0731 53.2391C66.7613 49.5509 68.8333 44.5486 68.8333 39.3327C68.8333 34.1168 66.7613 29.1145 63.0731 25.4262C59.3849 21.738 54.3826 19.666 49.1667 19.666C43.9507 19.666 38.9484 21.738 35.2602 25.4262C31.572 29.1145 29.5 34.1168 29.5 39.3327C29.5 44.5486 31.572 49.5509 35.2602 53.2391C38.9484 56.9273 43.9507 58.9993 49.1667 58.9993Z" fill="#EBB478"/>
</svg>
