<svg width="30" height="31" viewBox="0 0 30 31" fill="none" xmlns="http://www.w3.org/2000/svg">
<path d="M29.1641 4.56691L25.4641 0.866913C25.146 0.563689 24.7235 0.394531 24.2841 0.394531C23.8446 0.394531 23.4221 0.563689 23.1041 0.866913L19.8141 4.16691H2.16406C1.63363 4.16691 1.12492 4.37763 0.749849 4.7527C0.374776 5.12777 0.164063 5.63648 0.164062 6.16691V28.1669C0.164063 28.6973 0.374776 29.2061 0.749849 29.5811C1.12492 29.9562 1.63363 30.1669 2.16406 30.1669H24.1641C24.6945 30.1669 25.2032 29.9562 25.5783 29.5811C25.9533 29.2061 26.1641 28.6973 26.1641 28.1669V9.92691L29.1641 6.92691C29.4767 6.6138 29.6523 6.1894 29.6523 5.74691C29.6523 5.30443 29.4767 4.88003 29.1641 4.56691ZM14.9941 18.2969L10.8041 19.2269L11.8041 15.0769L21.3541 5.50691L24.5841 8.73691L14.9941 18.2969ZM25.6641 7.59691L22.4341 4.36691L24.2841 2.51691L27.5141 5.74691L25.6641 7.59691Z" fill="#544A0C"/>
</svg>
